<svg xmlns="http://www.w3.org/2000/svg" width="32" height="32" viewBox="0 0 32 32" fill="#178574">
    <g id="Linkedin" transform="translate(-175 -4111)">
        <path id="Icon_awesome-linkedin-in" data-name="Icon awesome-linkedin-in"
            d="M3.173,14.176H.234V4.712H3.173ZM1.7,3.421A1.71,1.71,0,1,1,3.4,1.7,1.716,1.716,0,0,1,1.7,3.421Zm12.47,10.755H11.24V9.569c0-1.1-.022-2.506-1.528-2.506C8.184,7.063,7.95,8.256,7.95,9.49v4.686H5.014V4.712H7.833V6h.041a3.088,3.088,0,0,1,2.781-1.528c2.974,0,3.521,1.959,3.521,4.5v5.2Z"
            transform="translate(185 4118)" />
    </g>
</svg>