<svg xmlns="http://www.w3.org/2000/svg" width="169.634" height="33.07" viewBox="0 0 169.634 33.07">
  <g id="Group_27044" data-name="Group 27044" transform="translate(-252.687 -223.847)">
    <g id="Group_8084" data-name="Group 8084" transform="translate(296.212 225.478)">
      <g id="Group_8083" data-name="Group 8083" transform="translate(0 1.408)">
        <path id="Path_14241" data-name="Path 14241" d="M416.2,242.432h3.484V239.21H416.2v-4.235h-4.161v7.456H416.2Z" transform="translate(-412.037 -234.975)" fill="#15314b"/>
        <path id="Path_14242" data-name="Path 14242" d="M419.306,278.277a5.2,5.2,0,0,1-1.22.161c-1.047,0-1.887-.367-1.887-2.047v-7.266h-4.161v7.957c-.024,3.325,2.392,4.959,5.523,4.867a8.372,8.372,0,0,0,2.451-.414Z" transform="translate(-412.037 -259.797)" fill="#15314b"/>
      </g>
      <path id="Path_14243" data-name="Path 14243" d="M669.4,229.82V233.8h4.161V229.82Z" transform="translate(-599.104 -229.82)" fill="#178574"/>
      <path id="Path_14244" data-name="Path 14244" d="M656.145,270.609a5.1,5.1,0,0,0,1.22.164c1.046,0,1.886-.375,1.886-2.095V250.1h4.161v19.284c.023,3.4-2.392,5.072-5.523,4.978a8.223,8.223,0,0,1-2.451-.424Z" transform="translate(-588.956 -244.56)" fill="#178574"/>
      <path id="Path_14245" data-name="Path 14245" d="M449.351,258.447c0-5.453,3.3-9.17,8.365-9.17,4.349,0,8.077,2.727,8.077,8.929v1.277H453.482c.035,3.026,1.818,4.8,4.51,4.8A3.684,3.684,0,0,0,461.731,262l3.889.437c-.736,3.073-3.566,5.086-7.685,5.086C452.606,267.527,449.351,263.994,449.351,258.447Zm12.449-1.772a3.939,3.939,0,0,0-3.716-4.15q-.156-.009-.312,0a4.249,4.249,0,0,0-4.28,4.154Z" transform="translate(-439.159 -243.962)" fill="#15314b"/>
      <path id="Path_14246" data-name="Path 14246" d="M519.672,258.4c0-5.4,3.268-9.135,8.445-9.135,4.314,0,7.307,2.516,7.593,6.351h-3.98a3.464,3.464,0,0,0-3.555-2.992c-2.565,0-4.28,2.141-4.28,5.709,0,3.613,1.68,5.788,4.28,5.788a3.447,3.447,0,0,0,3.555-2.991h3.98c-.3,3.751-3.129,6.387-7.57,6.387C522.857,267.516,519.672,263.757,519.672,258.4Z" transform="translate(-490.272 -243.955)" fill="#15314b"/>
      <path id="Path_14247" data-name="Path 14247" d="M595.135,253.383h-4.161V229.82h4.073v8.894h.207c.817-2,2.543-3.234,5.257-3.234,3.67,0,6.087,2.38,6.087,6.651v11.252h-4.161V242.774c0-2.38-1.288-3.774-3.475-3.774a3.671,3.671,0,0,0-3.82,4.027Z" transform="translate(-542.099 -229.82)" fill="#15314b"/>
      <path id="Path_14248" data-name="Path 14248" d="M705.85,250.517h4.161V268.19h-4.039v-3.14h-.184a5.455,5.455,0,0,1-5.316,3.37c-3.474,0-5.891-2.4-5.891-6.651V250.517h4.161v10.609c0,2.243,1.335,3.659,3.336,3.659a3.758,3.758,0,0,0,3.773-3.742q0-.143-.01-.286Z" transform="translate(-617.406 -244.864)" fill="#178574"/>
      <path id="Path_14249" data-name="Path 14249" d="M766.768,250.708h4.038v2.945h.184a4.415,4.415,0,0,1,4.36-3.2,10.041,10.041,0,0,1,1.5.115V254.4a7.931,7.931,0,0,0-1.935-.242,3.774,3.774,0,0,0-3.976,3.561q-.007.136-.005.272v10.389h-4.161Z" transform="translate(-669.876 -244.816)" fill="#178574"/>
      <path id="Path_14250" data-name="Path 14250" d="M812,273.924l.968-3.234c1.818.518,3.014.369,3.808-1.588l.357-.955-6.408-18.042h4.419l4.073,13.347h.184l4.085-13.347,4.451.023-7.1,19.79c-1,2.772-2.876,4.451-6.121,4.451A7.538,7.538,0,0,1,812,273.924Z" transform="translate(-701.826 -244.564)" fill="#178574"/>
    </g>
    <g id="Group_8085" data-name="Group 8085" transform="translate(252.687 223.847)">
      <path id="Path_14251" data-name="Path 14251" d="M280.194,223.847h-19.54a7.964,7.964,0,0,0-7.967,7.961v12.783a7.965,7.965,0,0,0,7.961,7.968h19.546a7.964,7.964,0,0,0,7.967-7.961V231.815a7.964,7.964,0,0,0-7.961-7.968Zm3.988,19.748a4.979,4.979,0,0,1-4.979,4.979H261.658a4.979,4.979,0,0,1-4.979-4.979V232.814a4.978,4.978,0,0,1,4.977-4.979H279.2a4.978,4.978,0,0,1,4.979,4.977V243.6Z" transform="translate(-252.687 -223.847)" fill="#15314b"/>
      <rect id="Rectangle_2564" data-name="Rectangle 2564" width="16.137" height="8.09" rx="4.045" transform="translate(9.672 19.625)" fill="#15314b"/>
      <path id="Path_14252" data-name="Path 14252" d="M307.861,223.847a2.141,2.141,0,0,1-2.121,1.872H298.2a2.142,2.142,0,0,1-2.121-1.872Z" transform="translate(-284.227 -223.847)" fill="#178574"/>
      <path id="Path_7383" data-name="Path 7383" d="M268.034,324.013v4.5a1.207,1.207,0,0,0,2.008.9l5.236-4.622Z" transform="translate(-263.842 -296.654)" fill="#15314b"/>
      <rect id="Rectangle_2564-2" data-name="Rectangle 2564-2" width="19.979" height="4.064" rx="2.032" transform="translate(7.753 8.246)" fill="#178574"/>
      <rect id="Rectangle_2564-3" data-name="Rectangle 2564-3" width="4.064" height="6.593" rx="2.032" transform="translate(15.713 9.749)" fill="#178574"/>
      <rect id="Rectangle_2564-4" data-name="Rectangle 2564-4" width="1.177" height="1.91" rx="0.589" transform="translate(13.355 22.715)" fill="#fff"/>
      <rect id="Rectangle_2564-5" data-name="Rectangle 2564-5" width="1.177" height="1.91" rx="0.589" transform="translate(17.158 22.715)" fill="#fff"/>
      <rect id="Rectangle_2564-6" data-name="Rectangle 2564-6" width="1.177" height="1.91" rx="0.589" transform="translate(20.958 22.715)" fill="#fff"/>
    </g>
  </g>
</svg>
