<svg xmlns="http://www.w3.org/2000/svg" width="32" height="32" viewBox="0 0 32 32" fill="#178574">
    <g id="Twitter" transform="translate(-127 -4111)">
        <path id="Icon_awesome-twitter" data-name="Icon awesome-twitter"
            d="M13.8,6.493c.01.137.01.273.01.41A8.906,8.906,0,0,1,4.84,15.871,8.907,8.907,0,0,1,0,14.456a6.52,6.52,0,0,0,.761.039,6.312,6.312,0,0,0,3.913-1.347,3.157,3.157,0,0,1-2.947-2.186,3.975,3.975,0,0,0,.6.049,3.333,3.333,0,0,0,.829-.107A3.152,3.152,0,0,1,.624,7.811V7.772a3.174,3.174,0,0,0,1.425.4,3.156,3.156,0,0,1-.976-4.215,8.959,8.959,0,0,0,6.5,3.3,3.558,3.558,0,0,1-.078-.722,3.155,3.155,0,0,1,5.455-2.156,6.205,6.205,0,0,0,2-.761,3.143,3.143,0,0,1-1.386,1.737,6.318,6.318,0,0,0,1.815-.488A6.775,6.775,0,0,1,13.8,6.493Z"
            transform="translate(136 4117.619)" />
    </g>
</svg>